<?xml version="1.0" encoding="UTF-8" standalone="no"?>
<!-- Created with Inkscape (http://www.inkscape.org/) -->

<svg
   xmlns:dc="http://purl.org/dc/elements/1.1/"
   xmlns:cc="http://creativecommons.org/ns#"
   xmlns:rdf="http://www.w3.org/1999/02/22-rdf-syntax-ns#"
   xmlns:svg="http://www.w3.org/2000/svg"
   xmlns="http://www.w3.org/2000/svg"
   xmlns:xlink="http://www.w3.org/1999/xlink"
   xmlns:sodipodi="http://sodipodi.sourceforge.net/DTD/sodipodi-0.dtd"
   xmlns:inkscape="http://www.inkscape.org/namespaces/inkscape"
   id="svg2443"
   sodipodi:version="0.32"
   inkscape:version="0.48.2 r9819"
   width="200.00003"
   height="42.053059"
   xml:space="preserve"
   sodipodi:docname="TalkTalk.svg"
   version="1.0"
   inkscape:output_extension="org.inkscape.output.svg.inkscape"><metadata
     id="metadata2448"><rdf:RDF><cc:Work
         rdf:about=""><dc:format>image/svg+xml</dc:format><dc:type
           rdf:resource="http://purl.org/dc/dcmitype/StillImage" /></cc:Work></rdf:RDF></metadata><defs
     id="defs2446"><linearGradient
       id="linearGradient3700"><stop
         style="stop-color:#ff0000;stop-opacity:1"
         offset="0"
         id="stop3702" /><stop
         id="stop3726"
         offset="0.1"
         style="stop-color:#ff0200;stop-opacity:1" /><stop
         id="stop3724"
         offset="0.2"
         style="stop-color:#ff0e00;stop-opacity:1" /><stop
         id="stop3720"
         offset="0.30979022"
         style="stop-color:#ff1c00;stop-opacity:1" /><stop
         id="stop3718"
         offset="0.40000001"
         style="stop-color:#ff2700;stop-opacity:1" /><stop
         id="stop3714"
         offset="0.5"
         style="stop-color:#ff3300;stop-opacity:1" /><stop
         id="stop3712"
         offset="0.60000002"
         style="stop-color:#ff3e00;stop-opacity:1" /><stop
         id="stop3710"
         offset="0.69999999"
         style="stop-color:#ff4b00;stop-opacity:1" /><stop
         id="stop3708"
         offset="0.80000001"
         style="stop-color:#ff5800;stop-opacity:1" /><stop
         id="stop3706"
         offset="0.8975113"
         style="stop-color:#ff6300;stop-opacity:1" /><stop
         style="stop-color:#ff6f00;stop-opacity:1"
         offset="1"
         id="stop3704" /></linearGradient><linearGradient
       id="linearGradient3201"><stop
         id="stop3203"
         offset="0"
         style="stop-color:#008acc;stop-opacity:1" /><stop
         id="stop3205"
         offset="1"
         style="stop-color:#e5028c;stop-opacity:1" /></linearGradient><linearGradient
       id="linearGradient3193"><stop
         id="stop3195"
         offset="0"
         style="stop-color:#550000;stop-opacity:1" /><stop
         id="stop3197"
         offset="1"
         style="stop-color:#008ed0;stop-opacity:1" /></linearGradient><linearGradient
       id="linearGradient3081"><stop
         style="stop-color:#550000;stop-opacity:1"
         offset="0"
         id="stop3083" /><stop
         style="stop-color:#008ed0;stop-opacity:1"
         offset="1"
         id="stop3085" /></linearGradient><inkscape:perspective
       sodipodi:type="inkscape:persp3d"
       inkscape:vp_x="0 : 526.18109 : 1"
       inkscape:vp_y="0 : 1000 : 0"
       inkscape:vp_z="744.09448 : 526.18109 : 1"
       inkscape:persp3d-origin="372.04724 : 350.78739 : 1"
       id="perspective2450" /><clipPath
       clipPathUnits="userSpaceOnUse"
       id="clipPath2458"><path
         d="m 0,0 595,0 0,841.89 -595,0 L 0,0 z"
         id="path2460"
         inkscape:connector-curvature="0" /></clipPath><clipPath
       clipPathUnits="userSpaceOnUse"
       id="clipPath2472"><path
         d="m 0,0 595.276,0 0,841.89 L 0,841.89 0,0 z"
         id="path2474"
         inkscape:connector-curvature="0" /></clipPath><clipPath
       clipPathUnits="userSpaceOnUse"
       id="clipPath2542"><path
         d="m 0,0 595.276,0 0,841.89 L 0,841.89 0,0 z"
         id="path2544"
         inkscape:connector-curvature="0" /></clipPath><clipPath
       clipPathUnits="userSpaceOnUse"
       id="clipPath2826"><path
         d="m 51.969,288.532 160.629,0 0,194.775 -160.629,0 0,-194.775 z"
         id="path2828"
         inkscape:connector-curvature="0" /></clipPath><inkscape:perspective
       id="perspective3012"
       inkscape:persp3d-origin="0.5 : 0.33333333 : 1"
       inkscape:vp_z="1 : 0.5 : 1"
       inkscape:vp_y="0 : 1000 : 0"
       inkscape:vp_x="0 : 0.5 : 1"
       sodipodi:type="inkscape:persp3d" /><linearGradient
       inkscape:collect="always"
       xlink:href="#linearGradient3081"
       id="linearGradient3155"
       x1="426.67267"
       y1="96.687538"
       x2="453.18866"
       y2="107.22549"
       gradientUnits="userSpaceOnUse" /><linearGradient
       inkscape:collect="always"
       xlink:href="#linearGradient3201"
       id="linearGradient3199"
       x1="438.6926"
       y1="111.25218"
       x2="534.84998"
       y2="104.64841"
       gradientUnits="userSpaceOnUse" /><inkscape:perspective
       id="perspective3670"
       inkscape:persp3d-origin="0.5 : 0.33333333 : 1"
       inkscape:vp_z="1 : 0.5 : 1"
       inkscape:vp_y="0 : 1000 : 0"
       inkscape:vp_x="0 : 0.5 : 1"
       sodipodi:type="inkscape:persp3d" /><linearGradient
       inkscape:collect="always"
       xlink:href="#linearGradient3201-6"
       id="linearGradient3660"
       gradientUnits="userSpaceOnUse"
       gradientTransform="matrix(1.2953401,0,0,-1.2953401,288.75031,443.14346)"
       x1="-6.4795098"
       y1="22.798086"
       x2="104.30303"
       y2="-0.058859523" /><linearGradient
       id="linearGradient3201-6"><stop
         id="stop3203-8"
         offset="0"
         style="stop-color:#008acc;stop-opacity:1" /><stop
         id="stop3205-8"
         offset="1"
         style="stop-color:#00ffff;stop-opacity:1;" /></linearGradient><linearGradient
       y2="21.899652"
       x2="111.70396"
       y1="21.899652"
       x1="-10.837158"
       gradientTransform="matrix(1.3026717,0,0,1.3026717,378.35752,39.478904)"
       gradientUnits="userSpaceOnUse"
       id="linearGradient3679"
       xlink:href="#linearGradient3700"
       inkscape:collect="always" /><inkscape:perspective
       id="perspective2876"
       inkscape:persp3d-origin="0.5 : 0.33333333 : 1"
       inkscape:vp_z="1 : 0.5 : 1"
       inkscape:vp_y="0 : 1000 : 0"
       inkscape:vp_x="0 : 0.5 : 1"
       sodipodi:type="inkscape:persp3d" /></defs><sodipodi:namedview
     inkscape:window-height="1032"
     inkscape:window-width="1222"
     inkscape:pageshadow="2"
     inkscape:pageopacity="0.0"
     guidetolerance="10.0"
     gridtolerance="10.0"
     objecttolerance="10.0"
     borderopacity="1.0"
     bordercolor="#666666"
     pagecolor="#ffffff"
     id="base"
     showgrid="false"
     inkscape:zoom="0.8780244"
     inkscape:cx="249.71419"
     inkscape:cy="91.314879"
     inkscape:window-x="692"
     inkscape:window-y="-14"
     inkscape:current-layer="g2834"
     inkscape:snap-grids="false"
     inkscape:snap-to-guides="false"
     inkscape:window-maximized="0"
     fit-margin-left="0.2"
     fit-margin-top="0.2"
     fit-margin-bottom="0.2"
     fit-margin-right="0.2" /><g
     id="g2452"
     inkscape:groupmode="layer"
     inkscape:label="digital-anthpology-report-2009"
     transform="matrix(1.25,0,0,-1.25,-455.34387,91.105849)"><g
       id="g2468" /><g
       id="g2538"><g
         id="g2540"
         clip-path="url(#clipPath2542)"><g
           id="g2834"><path
             style="fill:url(#linearGradient3679);fill-opacity:1;fill-rule:nonzero;stroke:none"
             d="m 416.41516,72.715657 c -0.92751,0 -1.6723,-0.29129 -2.1999,-0.911361 -0.38168,-0.43379 -0.84851,-1.113119 -0.84851,-2.63986 0,-1.49286 0.0264,-21.917082 0.0315,-26.084303 0,-1.178929 0.28579,-2.067019 0.84851,-2.702719 0.54715,-0.587511 1.26834,-0.91138 2.1685,-0.91138 0.92095,0 1.65161,0.31199 2.23129,0.87997 0.55493,0.60703 0.84852,1.40718 0.84852,5.342561 l 0,23.381592 c 0,1.217979 -0.2726,2.121899 -0.81711,2.734139 -0.56926,0.61225 -1.32611,0.911361 -2.2627,0.911361 z m 10.71656,0 c -1.27489,-0.14218 -2.6713,-0.92324 -2.6713,-3.959781 l 0,-25.675743 c 0,-1.207589 0.2765,-2.110169 0.81712,-2.734129 0.5393,-0.56798 1.27889,-0.87997 2.19987,-0.87997 0.81548,0 1.53666,0.30156 2.16844,0.87997 0.62139,0.62136 0.85533,1.49055 0.91138,2.074169 0.0431,0.4403 0.12567,2.130811 0.12567,2.954122 0,5.0765 3.21383,3.70283 4.05407,2.63985 0.64743,-0.8298 1.67717,-1.914101 2.13702,-2.608431 0,0 3.73411,-5.009411 4.14834,-5.40543 0.40645,-0.33088 0.99786,-0.53425 1.75991,-0.53425 0.87541,0 1.57022,0.291959 2.1056,0.78568 0.53412,0.55625 0.81711,1.30786 0.81711,2.26273 0,0.34652 -0.10586,0.68551 -0.31427,1.0685 l -6.28539,8.42241 c -0.96526,1.37172 -0.58375,2.673402 0.47142,3.834081 0.5849,0.68651 2.97235,3.22167 3.45695,3.802661 1.04209,1.23624 0.85797,2.59637 -0.0943,3.551229 -0.99522,0.957451 -2.74016,0.98923 -3.89692,-0.15714 l -4.61975,-4.65118 c -1.10467,-1.10205 -3.83408,-1.24048 -3.83408,1.194221 l 0,9.39665 c 0,3.04695 -1.46502,3.739781 -2.9227,3.739781 -0.17295,0 -0.35214,0.0203 -0.53426,0 z m 67.56777,0 c -0.93793,0 -1.65277,-0.289981 -2.19987,-0.911361 -0.38299,-0.43249 -0.84853,-1.113119 -0.84853,-2.63986 l 0,-22.784491 c 0,-1.447261 -0.004,-2.596371 0,-3.299812 0,-1.178929 0.27926,-2.067019 0.84853,-2.702719 0.56795,-0.587511 1.29713,-0.91138 2.19987,-0.91138 0.91708,0 1.68045,0.31199 2.26273,0.87997 0.58361,0.60831 0.87997,1.408479 0.87997,5.342561 l 0,0.69138 0,22.690212 c 0,1.217999 -0.30809,2.121899 -0.87997,2.734139 -0.56797,0.613561 -1.33262,0.911361 -2.26273,0.911361 z m 10.84228,0 c -1.29406,-0.14218 -2.67129,-0.92324 -2.67129,-3.959781 l 0,-22.375931 0,-3.299812 c 0,-1.207589 0.2752,-2.110169 0.81711,-2.734129 0.5406,-0.56798 1.27255,-0.87997 2.2313,-0.87997 0.81027,0 1.48031,0.30156 2.10562,0.87997 0.62139,0.62136 0.85542,1.49055 0.91137,2.074169 0.0404,0.440291 0.0943,2.130821 0.0943,2.954122 0,0.367349 0.0289,0.698229 0.0629,1.00565 0.40904,3.86633 3.27898,2.62161 4.05408,1.6342 0.38949,-0.492411 0.89411,-1.101401 1.35135,-1.6342 0.31655,-0.36606 0.62431,-0.694151 0.81708,-0.974231 0,0 3.70268,-5.009411 4.11695,-5.40543 0.40513,-0.33088 0.97552,-0.53425 1.72846,-0.53425 0.88061,0 1.60165,0.291959 2.13703,0.78568 0.54061,0.55625 0.8171,1.30786 0.8171,2.26273 0,0.34652 -0.10843,0.68551 -0.31425,1.0685 l -2.10563,2.797001 -4.17975,5.625409 c -0.977,1.371731 -0.65314,2.673402 0.40854,3.834081 0.60705,0.68651 3.04173,3.22166 3.51981,3.802661 1.04084,1.236209 0.86058,2.59637 -0.0943,3.551229 -0.99135,0.95746 -2.74555,0.98923 -3.92837,-0.15714 -0.65786,-0.65915 -2.67616,-2.742769 -4.61976,-4.65118 -1.10598,-1.10205 -3.83406,-1.24045 -3.83406,1.194221 l 0,9.39665 c 0,3.04695 -1.4712,3.739781 -2.85986,3.739781 -0.17649,0 -0.3808,0.0203 -0.56569,0 z M 367.82921,72.212846 c -1.89541,0 -3.39411,-0.773939 -3.39411,-2.796999 0,-1.082521 0.61259,-2.765572 2.82841,-2.765572 l 1.88563,0 c 4.47729,0 5.62539,-2.051839 5.62539,-7.322439 l 0.37714,-15.902013 c 0,-1.33785 0.43474,-2.506349 0.9428,-3.016969 0.64092,-0.61227 1.17239,-0.94282 2.26273,-0.94282 1.10208,0 1.64933,0.33055 2.29417,0.94282 0.50805,0.51062 0.9428,1.679119 0.9428,3.016969 l 0.34571,15.902013 c 0,5.2706 1.12451,7.322439 5.59397,7.322439 l 1.94847,0 c 2.18719,0 2.79699,1.68306 2.79699,2.765572 0,2.02306 -1.49203,2.796999 -3.36268,2.796999 l -21.08742,0 z m 78.22149,0 c -1.898,0 -3.42554,-0.77264 -3.42554,-2.796999 0,-1.082512 0.61128,-2.734131 2.82844,-2.734131 l 1.8856,0 c 4.50985,0 5.65685,-2.08328 5.65685,-7.35388 l 0.28285,-12.947891 0.0628,-2.954122 c 0,-1.33785 0.43347,-2.50765 0.94281,-3.016969 0.65005,-0.61227 1.18803,-0.94282 2.26272,-0.94282 1.10597,0 1.64414,0.33055 2.29416,0.94282 0.51196,0.509319 0.94281,1.679119 0.94281,3.016969 l 0.0629,2.954122 0.28283,12.947891 c 0,5.2706 1.15969,7.35388 5.59399,7.35388 l 1.94848,0 c 2.21844,0 2.82841,1.651619 2.82841,2.734131 0,2.024359 -1.49481,2.796999 -3.39412,2.796999 l -21.056,0 z m -47.29744,-7.95101 c -2.38128,0.0418 -4.50007,-0.27438 -6.66251,-1.16279 -1.62312,-0.653941 -3.79679,-2.261421 -4.17977,-3.77121 -0.16935,-0.66698 -0.16673,-1.26473 0.50283,-1.9799 0.51846,-0.56797 1.35087,-0.888111 1.7599,-0.94281 0.878,-0.117343 1.82048,0.004 2.63986,0.8171 1.00046,1.026479 1.61301,1.521669 2.3256,1.79133 0.55753,0.20972 1.32839,0.54224 2.7027,0.56567 1.82765,0.02999 3.04661,-0.312311 3.70836,-1.194221 0.74775,-0.99394 0.53608,-2.67454 0.37714,-3.0484 -0.25533,-0.55755 -0.81888,-0.58327 -3.42554,-0.94282 -1.24796,-0.17193 -3.86225,-0.43181 -6.25394,-1.131341 -1.81854,-0.528899 -3.33255,-1.555059 -4.0855,-2.451309 -0.99915,-1.238841 -1.38295,-2.471821 -1.41421,-4.148361 -0.0181,-1.19977 0.32829,-3.02104 1.00566,-4.05407 2.00091,-3.031311 4.8658,-3.12054 6.09682,-3.14267 4.14898,-0.0729 6.81458,1.59594 7.85671,2.294169 0.68651,0.467651 1.37659,0.358081 1.69705,-0.0314 0.85455,-1.03824 0.92978,-1.23707 1.44565,-1.665649 0.88843,-0.666961 2.04859,-1.05925 3.67694,-0.0314 1.29355,0.861061 1.79313,2.344171 0.62854,4.399761 -0.7751,1.38215 -0.91139,2.08329 -0.91139,3.33124 0,1.23494 0.0392,5.51385 0.0315,6.976791 -0.0133,2.333059 -0.11718,4.02572 -0.72284,5.373979 -0.59793,1.39647 -1.85957,2.615761 -3.39409,3.268392 -1.74821,0.719079 -3.97641,0.8526 -5.40544,0.879959 z m 78.22148,0 c -2.40472,0.0418 -4.4662,-0.27567 -6.66251,-1.16279 -1.6205,-0.653941 -3.82559,-2.261421 -4.21119,-3.77121 -0.16932,-0.66698 -0.14312,-1.26473 0.53425,-1.9799 0.51977,-0.566671 1.38882,-0.8881 1.79136,-0.94281 0.8845,-0.117343 1.79424,0.004 2.60841,0.8171 1.02391,1.026479 1.65974,1.521669 2.29416,1.79133 0.56796,0.20973 1.35591,0.540929 2.73414,0.56567 1.86022,0.02999 3.06633,-0.312311 3.7398,-1.194221 0.75424,-0.99394 0.53996,-2.67454 0.37713,-3.0484 -0.25533,-0.55754 -0.84772,-0.58327 -3.45696,-0.94282 -1.2779,-0.17193 -3.79956,-0.43181 -6.22253,-1.131341 -1.82371,-0.528899 -3.39542,-1.55507 -4.14836,-2.451309 -1.00043,-1.23885 -1.38944,-2.47051 -1.4142,-4.148361 -0.004,-0.0926 -0.003,-0.18642 0,-0.282829 0.03,-1.188021 0.41051,-2.815071 1.03709,-3.771241 2.03479,-3.032611 4.89739,-3.119221 6.15967,-3.14267 4.10343,-0.07171 6.78836,1.59594 7.8253,2.294169 0.70083,0.467651 1.37918,0.35936 1.69706,-0.0314 0.7868,-1.03824 0.89831,-1.23707 1.41419,-1.665649 0.88583,-0.665661 2.02646,-1.05925 3.67695,-0.0314 1.29355,0.85975 1.79051,2.34414 0.62853,4.399761 -0.45332,0.81287 -0.67491,1.355759 -0.78567,1.94847 -0.0767,0.416849 -0.0943,0.86693 -0.0943,1.38277 0,1.23495 0.0419,5.51258 0.0315,6.976791 -0.0131,2.331769 -0.11563,4.024409 -0.72282,5.373979 -0.61746,1.396461 -1.92764,2.614471 -3.45698,3.268392 -1.70257,0.717779 -3.93453,0.8526 -5.37399,0.879959 z M 399.82177,50.151165 c 0.45268,0.0134 0.78241,-0.009 1.03709,-0.0314 0.6422,-0.0534 1.00614,-0.405479 1.09992,-1.06852 0.0888,-0.626579 0.0175,-1.53128 -0.37711,-2.13703 -0.47678,-0.69173 -0.94345,-1.168979 -2.07418,-1.60277 -2.11944,-0.83371 -3.86029,-0.958111 -4.87117,-0.37711 -0.57447,0.32826 -0.91333,0.895749 -1.03708,1.66562 -0.2019,1.263581 0.35287,1.936891 0.72282,2.23132 0.76207,0.600521 1.85206,0.929611 3.70836,1.16278 0.77575,0.09831 1.33866,0.14378 1.79135,0.15713 z m 78.25291,0 c 0.45514,0.0134 0.78177,-0.009 1.03708,-0.0314 0.63832,-0.052 1.00355,-0.404149 1.09994,-1.06852 0.0872,-0.62528 0.0185,-1.529989 -0.37711,-2.13703 -0.13547,-0.18888 -0.26396,-0.36881 -0.40855,-0.53425 -0.38688,-0.427269 -0.84885,-0.75196 -1.66563,-1.06852 -2.15723,-0.83371 -3.92541,-0.95813 -4.87117,-0.37711 -0.52234,0.2931 -0.84804,0.77998 -1.00566,1.44563 -0.0144,0.0639 -0.0184,0.15745 -0.0315,0.21999 -0.21101,1.2636 0.3843,1.93691 0.75425,2.23132 0.70085,0.599221 1.77882,0.930901 3.64553,1.16278 0.78356,0.09831 1.36763,0.14378 1.82274,0.15713 z"
             id="path2700"
             inkscape:connector-curvature="0" /></g></g></g></g></svg>