<?xml version="1.0" encoding="UTF-8" standalone="no"?>
<!-- Created with Inkscape (http://www.inkscape.org/) -->
<svg
   xmlns:dc="http://purl.org/dc/elements/1.1/"
   xmlns:cc="http://creativecommons.org/ns#"
   xmlns:rdf="http://www.w3.org/1999/02/22-rdf-syntax-ns#"
   xmlns:svg="http://www.w3.org/2000/svg"
   xmlns="http://www.w3.org/2000/svg"
   xmlns:sodipodi="http://sodipodi.sourceforge.net/DTD/sodipodi-0.dtd"
   xmlns:inkscape="http://www.inkscape.org/namespaces/inkscape"
   id="svg2440"
   sodipodi:version="0.32"
   inkscape:version="0.46"
   width="2818.1404"
   height="524.82245"
   version="1.0"
   sodipodi:docname="Blinkbox logo.svg"
   inkscape:output_extension="org.inkscape.output.svg.inkscape">
  <metadata
     id="metadata2445">
    <rdf:RDF>
      <cc:Work
         rdf:about="">
        <dc:format>image/svg+xml</dc:format>
        <dc:type
           rdf:resource="http://purl.org/dc/dcmitype/StillImage" />
      </cc:Work>
    </rdf:RDF>
  </metadata>
  <defs
     id="defs2443">
    <inkscape:perspective
       sodipodi:type="inkscape:persp3d"
       inkscape:vp_x="0 : 526.18109 : 1"
       inkscape:vp_y="0 : 1000 : 0"
       inkscape:vp_z="744.09448 : 526.18109 : 1"
       inkscape:persp3d-origin="372.04724 : 350.78739 : 1"
       id="perspective2447" />
    <inkscape:perspective
       id="perspective2458"
       inkscape:persp3d-origin="372.04724 : 350.78739 : 1"
       inkscape:vp_z="744.09448 : 526.18109 : 1"
       inkscape:vp_y="0 : 1000 : 0"
       inkscape:vp_x="0 : 526.18109 : 1"
       sodipodi:type="inkscape:persp3d" />
    <inkscape:perspective
       id="perspective2475"
       inkscape:persp3d-origin="372.04724 : 350.78739 : 1"
       inkscape:vp_z="744.09448 : 526.18109 : 1"
       inkscape:vp_y="0 : 1000 : 0"
       inkscape:vp_x="0 : 526.18109 : 1"
       sodipodi:type="inkscape:persp3d" />
    <inkscape:perspective
       id="perspective2490"
       inkscape:persp3d-origin="372.04724 : 350.78739 : 1"
       inkscape:vp_z="744.09448 : 526.18109 : 1"
       inkscape:vp_y="0 : 1000 : 0"
       inkscape:vp_x="0 : 526.18109 : 1"
       sodipodi:type="inkscape:persp3d" />
  </defs>
  <sodipodi:namedview
     inkscape:window-height="667"
     inkscape:window-width="640"
     inkscape:pageshadow="2"
     inkscape:pageopacity="0.0"
     guidetolerance="10.0"
     gridtolerance="10.0"
     objecttolerance="10.0"
     borderopacity="1.0"
     bordercolor="#666666"
     pagecolor="#ffffff"
     id="base"
     showgrid="false"
     inkscape:zoom="0.18490823"
     inkscape:cx="1471"
     inkscape:cy="352.5"
     inkscape:window-x="638"
     inkscape:window-y="73"
     inkscape:current-layer="svg2440" />
  <g
     id="g2496"
     transform="translate(0.2353071,-54.253614)">
    <path
       id="path2466"
       d="M 189.76469,571.11669 C 167.46639,568.21103 147.23917,562.30318 128.01469,553.08111 L 116.76469,547.68443 L 116.76469,554.12531 L 116.76469,560.56619 L 58.264693,560.56619 L -0.23530713,560.56619 L -0.23530713,310.56619 L -0.23530713,60.566187 L 58.264693,60.566187 L 116.76469,60.566187 L 116.76469,128.06619 C 116.76469,165.19119 116.93185,195.56619 117.13616,195.56619 C 117.34047,195.56619 122.17797,193.35265 127.88616,190.64721 C 155.7882,177.42284 182.71955,171.4318 214.26469,171.4318 C 232.72123,171.4318 246.90791,173.09041 262.90724,177.11876 C 352.23823,199.61074 414.81142,279.65563 414.75649,371.36741 C 414.74259,394.55911 411.76375,413.37322 404.69882,434.89072 C 394.84248,464.90996 379.0272,490.39934 355.82696,513.65716 C 325.52304,544.0363 289.03041,562.74549 245.75075,570.09148 C 232.69846,572.30689 203.06297,572.84957 189.76469,571.11669 z M 230.26469,465.73835 C 240.44404,462.88654 245.44584,460.92499 252.68535,456.94565 C 302.66871,429.47136 318.65516,365.2 287.24678,317.99612 C 274.32791,298.58025 255.80293,284.86849 233.04653,277.87834 C 224.97731,275.3997 222.84462,275.17615 206.76469,275.12349 C 187.47718,275.06034 181.14349,276.25652 166.31355,282.76309 C 151.31644,289.34301 134.86085,302.95892 126.06487,316.06619 C 86.586846,374.89412 118.28588,452.50984 187.76469,467.13943 C 197.13475,469.11241 221.0334,468.32455 230.26469,465.73835 z M 1369.7568,476.31619 C 1336.6231,427.77869 1308.2203,386.72484 1306.6393,385.08542 L 1303.7647,382.10465 L 1303.7647,472.33542 L 1303.7647,562.56619 L 1245.2647,562.56619 L 1186.7647,562.56619 L 1186.7647,310.56619 L 1186.7647,58.566187 L 1245.2647,58.566187 L 1303.7647,58.566187 L 1303.7647,181.64952 C 1303.7647,259.52646 1304.116,304.61043 1304.7211,304.39952 C 1305.2471,304.21619 1332.059,275.94119 1364.3032,241.56619 C 1396.5474,207.19119 1423.653,178.50369 1424.538,177.81619 C 1425.7867,176.84609 1440.4217,176.56619 1489.8968,176.56619 C 1524.9592,176.56619 1553.8566,176.90584 1554.1131,177.32097 C 1554.3697,177.7361 1519.0832,215.8736 1475.6987,262.07097 C 1432.3141,308.26834 1396.9776,346.51619 1397.1731,347.06619 C 1397.3686,347.61619 1430.6566,396.52443 1471.1466,455.75117 C 1511.6365,514.97791 1544.7647,563.69041 1544.7647,564.00117 C 1544.7647,564.31193 1518.9426,564.56619 1487.3822,564.56619 L 1429.9997,564.56619 L 1369.7568,476.31619 z M 610.76469,372.06619 L 610.76469,180.56619 L 669.26469,180.56619 L 727.76469,180.56619 L 727.76469,372.06619 L 727.76469,563.56619 L 669.26469,563.56619 L 610.76469,563.56619 L 610.76469,372.06619 z M 440.76469,310.56619 L 440.76469,58.566187 L 499.26469,58.566187 L 557.76469,58.566187 L 557.76469,310.56619 L 557.76469,562.56619 L 499.26469,562.56619 L 440.76469,562.56619 L 440.76469,310.56619 z M 777.76469,370.06619 L 777.76469,178.56619 L 836.76469,178.56619 L 895.76469,178.56619 L 895.76469,193.46896 L 895.76469,208.37173 L 902.51469,201.35072 C 928.85038,173.95766 962.85612,159.52961 1000.9563,159.58365 C 1028.7233,159.62304 1053.1196,166.96957 1075.7647,182.11098 C 1103.3918,200.58353 1122.1981,227.00354 1130.7208,259.31619 C 1131.3934,261.86613 1132.4264,263.56619 1133.3032,263.56619 C 1134.5786,263.56619 1134.7647,282.53494 1134.7647,412.56619 L 1134.7647,561.56619 L 1076.3062,561.56619 L 1017.8477,561.56619 L 1017.5083,441.31619 C 1017.2011,332.49127 1017.0103,320.54363 1015.4998,315.56619 C 1010.2121,298.14227 998.44353,283.79711 983.69201,276.79455 C 972.79836,271.62332 967.3868,270.3859 955.76469,270.40865 C 933.31132,270.45259 913.13902,282.7423 902.75317,302.70521 C 895.49132,316.66342 895.80141,310.43092 895.78205,442.81619 L 895.76469,561.56619 L 836.76469,561.56619 L 777.76469,561.56619 L 777.76469,370.06619 z M 612.76469,100.56619 L 612.76469,59.566187 L 671.26469,59.566187 L 729.76469,59.566187 L 729.76469,100.56619 L 729.76469,141.56619 L 671.26469,141.56619 L 612.76469,141.56619 L 612.76469,100.56619 z"
       style="fill:#0067aa;fill-opacity:1" />
    <path
       id="path2481"
       d="M 1749.1213,578.07353 C 1730.0525,575.91911 1703.7296,568.22801 1686.1417,559.67201 C 1681.1297,557.23384 1676.7123,555.23898 1676.3252,555.23898 C 1675.938,555.23898 1675.6213,558.16398 1675.6213,561.73898 L 1675.6213,568.23898 L 1617.1213,568.23898 L 1558.6213,568.23898 L 1558.6213,317.73898 L 1558.6213,67.238983 L 1617.1213,67.238983 L 1675.6213,67.238983 L 1675.6213,134.73898 C 1675.6213,171.86398 1675.7799,202.23898 1675.9738,202.23898 C 1676.1677,202.23898 1681.0052,200.03688 1686.7238,197.34542 C 1703.5679,189.41778 1719.8552,184.1965 1739.1213,180.54815 C 1751.7743,178.15209 1785.5395,177.66901 1799.9386,179.67804 C 1860.7787,188.16676 1913.0283,222.56507 1945.2513,275.34412 C 1980.3399,332.81692 1983.1345,407.9236 1952.4367,468.4584 C 1942.2117,488.62183 1932.6635,502.05868 1917.1644,518.0962 C 1884.4333,551.96434 1841.309,573.07264 1794.4107,578.18122 C 1783.0586,579.41779 1760.5456,579.36426 1749.1213,578.07353 z M 1790.554,472.27581 C 1825.5386,462.1791 1852.2717,433.97686 1860.2601,398.73898 C 1862.7187,387.89404 1862.7187,368.58392 1860.2601,357.73898 C 1852.2221,322.2824 1825.5691,294.31392 1790.0163,284.02837 C 1783.0779,282.02107 1780.0009,281.75245 1764.6213,281.81149 C 1748.4931,281.87339 1746.4158,282.09399 1738.1213,284.62552 C 1684.0761,301.12052 1654.7609,357.88056 1673.131,410.45981 C 1684.4694,442.9128 1714.1029,468.06882 1748.2811,474.25504 C 1757.1227,475.85536 1782.2231,474.68015 1790.554,472.27581 z M 2178.1213,575.11281 C 2147.4141,572.19263 2112.5674,559.80668 2087.2218,542.8034 C 2018.4,496.63361 1984.7617,415.52701 2001.0993,335.14986 C 2013.4138,274.56515 2054.0051,221.97802 2109.1213,195.20418 C 2181.9733,159.81485 2266.1772,170.3435 2328.2927,222.60881 C 2358.968,248.41977 2382.0341,285.31157 2392.133,324.7147 C 2409.9638,394.28551 2390.1636,466.98821 2339.6955,517.25618 C 2297.0655,559.71716 2238.133,580.81976 2178.1213,575.11281 z M 2213.5148,469.30132 C 2241.0293,462.4153 2264.871,443.10023 2277.1612,417.73898 C 2294.3899,382.18685 2289.3081,342.03022 2263.72,311.52419 C 2235.1799,277.49903 2184.5528,267.8003 2144.8781,288.75742 C 2110.8441,306.73491 2091.2693,340.8204 2092.9156,379.23898 C 2094.2269,409.83873 2108.7998,436.61175 2133.714,454.19307 C 2146.2601,463.04654 2157.8094,467.94033 2172.9554,470.82088 C 2183.0201,472.73502 2202.748,471.99591 2213.5148,469.30132 z M 2363.3216,566.84895 C 2363.7614,566.08444 2401.0213,518.82251 2446.1213,461.82244 C 2491.2213,404.82237 2528.2213,357.86038 2528.3434,357.46247 C 2528.4656,357.06455 2498.2031,316.75401 2461.0934,267.8835 C 2423.9838,219.01298 2393.6213,178.62548 2393.6213,178.1335 C 2393.6213,177.05895 2520.6189,176.93134 2522.2125,178.00429 C 2522.8126,178.40837 2538.9665,199.43898 2558.11,224.73898 C 2577.2534,250.03898 2593.444,271.31703 2594.0891,272.02354 C 2595.0138,273.03642 2603.1778,263.26053 2632.6916,225.7995 C 2653.2779,199.66977 2671.0213,178.04253 2672.1213,177.73898 C 2673.2213,177.43542 2703.0658,177.31123 2738.4424,177.46302 L 2802.7636,177.73898 L 2731.2655,268.13371 L 2659.7674,358.52845 L 2667.4056,368.63371 C 2680.9591,386.5648 2816.8422,565.69645 2817.8711,566.98898 C 2818.6651,567.98636 2805.7399,568.23898 2753.9145,568.23898 L 2688.9629,568.23898 L 2641.5421,505.74206 C 2615.4607,471.36876 2593.8108,443.24376 2593.4314,443.24206 C 2593.0519,443.24037 2570.5519,471.34471 2543.4314,505.69615 L 2494.1213,568.15332 L 2428.3216,568.19615 C 2372.4212,568.23254 2362.6422,568.02986 2363.3216,566.84895 z M 2715.2224,171.64504 C 2704.7032,169.09976 2696.8231,164.48331 2688.1071,155.75996 C 2675.1958,142.83767 2670.2667,131.22781 2670.2667,113.73898 C 2670.2667,96.195893 2675.2471,84.373463 2688.0045,71.632943 C 2700.4722,59.181723 2712.4338,54.222246 2729.9205,54.253763 C 2747.3461,54.285173 2758.5653,59.108163 2771.6667,72.199893 C 2784.5613,85.085013 2789.1001,96.060433 2789.0516,114.23898 C 2789.0214,125.57554 2786.5714,134.55905 2780.9034,144.11618 C 2776.5126,151.51976 2765.1937,162.52107 2757.8609,166.51205 C 2746.5291,172.67961 2728.4787,174.85258 2715.2224,171.64504 z M 2739.8221,163.1339 C 2759.901,158.9467 2777.0705,140.58087 2779.4986,120.69296 C 2781.6299,103.23624 2776.5815,89.182363 2763.8004,76.991253 C 2738.8958,53.236247 2698.9472,61.197253 2683.873,92.919293 C 2680.4931,100.03187 2680.1231,101.65414 2679.7806,110.85942 C 2679.1693,127.29005 2683.3465,138.19205 2694.5117,149.30586 C 2706.8861,161.62323 2723.1966,166.60093 2739.8221,163.1339 z M 2703.6213,114.23898 L 2703.6213,82.238983 L 2714.8713,82.246573 C 2730.3764,82.257033 2742.5017,83.763013 2745.6107,86.064453 C 2752.1551,90.908883 2754.6591,100.39766 2751.1724,107.1402 C 2748.8554,111.62077 2742.9866,116.15694 2738.5989,116.85855 L 2734.6288,117.4934 L 2739.108,121.43616 C 2742.9852,124.84903 2751.8295,137.01295 2755.5059,143.98898 C 2756.6734,146.20436 2756.5991,146.23898 2750.6768,146.23898 L 2744.6619,146.23898 L 2742.5046,141.98898 C 2741.3181,139.65148 2738.0796,134.19538 2735.308,129.8643 C 2729.6441,121.01343 2726.8627,119.23898 2718.6534,119.23898 L 2713.6213,119.23898 L 2713.6213,132.73898 L 2713.6213,146.23898 L 2708.6213,146.23898 L 2703.6213,146.23898 L 2703.6213,114.23898 z M 2737.3044,108.90284 C 2743.7196,105.58541 2744.0647,96.570103 2737.9139,92.977853 C 2735.6394,91.649453 2731.8058,90.967423 2724.1895,90.536113 L 2713.6213,89.937643 L 2713.6213,100.73192 L 2713.6213,111.52621 L 2723.9453,110.9993 C 2730.4269,110.66849 2735.3989,109.88825 2737.3044,108.90284 z"
       style="fill:#29292a;fill-opacity:1" />
  </g>
</svg>
